<svg xmlns="http://www.w3.org/2000/svg" viewBox="0 0 383.85 383.11"><defs><style>.cls-1{fill:#1686fb;}.cls-2{fill:#1476f9;}.cls-3{fill:#1372f8;}.cls-4{fill:#126cf8;}.cls-5{fill:#1689fb;}.cls-6{fill:#178bfb;}.cls-7{fill:#1687fb;}.cls-8{fill:#136ff8;}.cls-9{fill:#1683fa;}.cls-10{fill:#178cfb;}.cls-11{fill:#1268f7;}.cls-12{fill:#1790fc;}.cls-13{fill:#1581fa;}.cls-14{fill:#178ffc;}.cls-15{fill:#309bfc;}.cls-16{fill:#4e8ff9;}.cls-17{fill:#70a4fa;}.cls-18{fill:#70abfb;}.cls-19{fill:#157efa;}.cls-20{fill:#126df8;}.cls-21{fill:#147bf9;}.cls-22{fill:#1479f9;}.cls-23{fill:#1269f7;}.cls-24{fill:#1580fa;}.cls-25{fill:#147cf9;}.cls-26{fill:#1477f9;}.cls-27{fill:#1582fa;}</style></defs><g id="Layer_2" data-name="Layer 2"><g id="Layer_1-2" data-name="Layer 1"><path class="cls-1" d="M0,296.33V266.4a65.33,65.33,0,0,0,6.65-6L126.91,140.32c1.76-1.76,3.71-3.36,5-5.58a2.06,2.06,0,0,1,2.16-1.16h27.24c1.91-.09,2.15.89,1.42,2.34A13,13,0,0,1,160,139Q82.43,216.45,4.82,293.84C3.55,295.11,2.57,297.38,0,296.33Z"/><path class="cls-2" d="M267.55,190.24a124.31,124.31,0,0,0-9-26.32c.36-1.58,1.65-2.46,2.69-3.51q56.17-56.09,112.4-112.13c1.42-1.41,2.56-4.09,5.49-2.49,3.13,4.77,3.59,10.26,4.31,15.68.1.72-.18,1.51.4,2.14v2.24a1,1,0,0,0,0,1.5v8.23c-4.5,3.57-8.4,7.78-12.46,11.83q-49.9,49.8-99.82,99.6C270.36,188.22,269.38,189.77,267.55,190.24Z"/><path class="cls-3" d="M267.55,190.24c1-1.12,1.88-2.31,2.93-3.35L378.37,79.18c1.58-1.57,3-3.37,5.48-3.6V107c-1.43,1.73-3.08,3.25-4.66,4.84C344.71,146.26,310.32,180.77,275.63,215c-4.22,4.16-6.13,8.17-5.65,13.93.42,5.07,0,10.2.12,15.31,0,1.27-.51,2.82,1.12,3.65,12.33.39,24.66,0,37,.19,3.28.36,6.79-1.08,9.84,1.2-2.28.92-4.67.62-7,.63-13,.05-25.91-.06-38.87.09-2.77,0-3.59-.65-3.56-3.49q.21-20.69,0-41.4C268.54,200.14,267.92,195.19,267.55,190.24Z"/><path class="cls-4" d="M308.13,249.18c-11.68,0-23.37,0-35.05,0-1.28,0-2.77.59-3.82-.76a11.93,11.93,0,0,1,2.9-3.86q53.22-53.1,106.46-106.21c1.42-1.42,2.65-3.45,5.23-2.89v38.17c-1.11,2.2-3.29,3.37-5,5q-32.82,32.85-65.72,65.6C311.51,245.9,310.34,248.07,308.13,249.18Z"/><path class="cls-5" d="M132.7,134c.25,1.73-.87,2.74-1.94,3.81L3.82,264.46c-1.07,1.08-2.09,2.19-3.82,1.94V236.46c32.51-31.06,63.75-63.39,95.75-95a36.58,36.58,0,0,0,5.45-6.14c.7-1.09,1.54-2,3-1.78,8.29,0,16.57,0,24.85,0C130.28,133.61,131.55,133.27,132.7,134Z"/><path class="cls-6" d="M206.92,0h38.24c.63,2.1-.94,3.22-2.1,4.42-3.1,3.24-6.32,6.37-9.5,9.53q-46.81,46.74-93.68,93.43c-1.58,1.57-2.83,4.33-6,3.13-.13-11.59,0-23.17-.09-34.75a5.43,5.43,0,0,1,1.85-4.23c22.53-22.25,44.86-44.71,67.31-67C204.38,3.07,205.63,1.52,206.92,0Z"/><path class="cls-7" d="M265.4,0h29.24c1,1.44-.16,2.31-.91,3.22s-1.91,2-2.88,2.94Q239.19,57.72,187.52,109.25c-1.85,1.84-3.24,4.12-5.51,5.54-8.86.15-17.72,0-26.59,0-.92,0-2.16.49-2.69-.67s.41-2.1,1.12-3,1.56-1.62,2.35-2.41Q209.44,55.67,262.65,2.53C263.53,1.65,264.49.85,265.4,0Z"/><path class="cls-8" d="M383.85,135.44a13.45,13.45,0,0,0-4.71,3.58L272.56,245.39c-1.05,1.05-2.2,2-3.3,3q0-13.28-.11-26.53a3.56,3.56,0,0,1,1.28-3.28,59.05,59.05,0,0,0,5.25-4.75Q327.85,161.79,380,109.75c1.11-1.11,2-2.67,3.84-2.74Z"/><path class="cls-9" d="M0,296.33c1.6,0,2.37-1.26,3.32-2.21Q81.91,215.7,160.47,137.26c.95-.94,2.21-1.72,2.22-3.31a144.37,144.37,0,0,1,21.91-.07c1.79,0,3.6-.21,5.26.73-1.09,2.16-2.93,3.69-4.59,5.35q-23.88,23.88-47.8,47.72-4.75,4.74-9.42,9.56a4.5,4.5,0,0,1-2.15.47c-7.72-.24-13.47,3.2-17.73,9.44a5.31,5.31,0,0,1-1.8,1.82c-2.33.38-4,1.82-5.64,3.42Q90,223,79.33,233.75c-1.51,1.51-2.9,3.1-3.28,5.3a91,91,0,0,0-10.63,10.7,12.31,12.31,0,0,0-5.64,3.49c-18.14,18.14-36.26,36.31-54.53,54.32-2.09,2.07-2.71,5.12-5.25,6.73Z"/><path class="cls-9" d="M182.19,114.44a13.77,13.77,0,0,1,3.61-4.69Q238.85,56.8,291.89,3.83C293,2.72,294.57,1.88,294.64,0h25.49c.81,1,2.66-.49,3.18,1.28a142.26,142.26,0,0,0-11.62,11Q260.86,63,210,113.74c-1.75,1.74-3.08,3.92-5.32,5.16a145.88,145.88,0,0,0-20.29-3.8C183.75,114.58,182.76,115.21,182.19,114.44Z"/><path class="cls-5" d="M182.19,114.44c.77.09,1.63-.09,2.21.66q-24-.07-48.08-.16a15,15,0,0,1-2.17-.33,4.88,4.88,0,0,1,0-3.86,12.4,12.4,0,0,0,4.2-3Q190.22,55.92,242.11,4.19a12.6,12.6,0,0,0,3-4.19H265.4c-.07,1.88-1.64,2.72-2.75,3.83Q209.46,57,156.24,110.08c-.62.62-1.25,1.22-1.85,1.85s-1.32,1-1.07,1.83c.36,1.08,1.47.71,2.28.71Q168.89,114.49,182.19,114.44Z"/><path class="cls-10" d="M102.71,134c-.55,2.27-2.06,3.92-3.65,5.5q-46.77,46.7-93.55,93.38c-1.58,1.58-3.23,3.09-5.51,3.63V214c6-6.34,12.31-12.39,18.48-18.58,20.07-20.15,40.36-40.1,60.32-60.38.81-.82,1.54-1.65,2.85-1.48C88.67,133.82,95.71,133.12,102.71,134Z"/><path class="cls-11" d="M308.13,249.18a31.34,31.34,0,0,1,5.18-6.31q32.15-32,64.22-64.1a31.3,31.3,0,0,1,6.32-5.16v7.48c-.46.41-.37,1-.38,1.5s-.08,1.08.38,1.49v3c-1.83,2.22-1.54,5.08-2.18,7.63-7,28.21-31.25,50.3-59.91,54.37-1.22.17-2.47.13-3.71.18Z"/><path class="cls-12" d="M134.2,110.75c0,1.29,0,2.57,0,3.86-1.25-1-.64-2.31-.64-3.46,0-12.58-.08-25.17,0-37.75.15-35.79,24.39-65,59.64-72.14,1.11-.22,2.56.09,3.29-1.26h4.5a5.76,5.76,0,0,0,4.5,0h1.5c.21,1.54-.65,2.54-1.66,3.55q-34.81,34.67-69.66,69.3a4.79,4.79,0,0,0-1.4,3.93Z"/><path class="cls-13" d="M5.93,338.36C3.53,334,2.5,329.11,1.4,324.29c-.32-1.37-.06-3-1.4-4v-.74a66.11,66.11,0,0,0,6.63-6q25.19-25.18,50.42-50.33a21.42,21.42,0,0,1,3.31-3c1.65-1.08,3-1,3.89,1a18.23,18.23,0,0,0,5.41,10.22c.85.86,1.83,1.69,1.78,3.08Q40.62,305.38,9.69,336.15C8.64,337.2,7.6,338.33,5.93,338.36Z"/><path class="cls-14" d="M80.22,134c0,1.59-1.27,2.37-2.21,3.31Q40.67,174.55,3.32,211.81C2.37,212.75,1.59,214,0,214v-18c1.37-.9.76-2.61,1.55-3.75C13.51,180,25.82,168,38,155.8c7-7,14-14.22,21.25-21a16.66,16.66,0,0,1,6.57-.88A62.65,62.65,0,0,1,80.22,134Z"/><path class="cls-9" d="M63.61,261.16c-.77-1.26-1.76-1.19-2.76-.36s-1.65,1.52-2.45,2.31q-27,27-54.06,53.94c-1.21,1.22-2.25,2.78-4.34,2.48v-5.24c.87-3.48,3.24-5.9,5.69-8.33q26.85-26.71,53.63-53.5c1.68-1.68,3.28-3.46,6-3.25A24.9,24.9,0,0,1,63.61,261.16Z"/><path class="cls-15" d="M205.42,0a3.39,3.39,0,0,1-4.5,0Z"/><path class="cls-16" d="M383.18,182.63a1.37,1.37,0,0,1,.67-1.54v1.5C383.65,182.9,383.42,182.93,383.18,182.63Z"/><path class="cls-17" d="M383.18,182.63c.22,0,.45,0,.67,0v1.49C383.14,183.82,383.13,183.24,383.18,182.63Z"/><path class="cls-18" d="M383.85,67.35c-.78-.5-.9-1,0-1.5Z"/><path class="cls-3" d="M114.71,383H78c-.12-2.38,1.87-3.4,3.21-4.74q65.25-65.2,130.55-130.34l32.84-32.78a31.31,31.31,0,0,1,2.7-2.58c.67-.52,1.37-1.31,2.3-.73.73.46.42,1.36.42,2.08,0,11.46.12,22.92-.08,34.38l-20.65,20.61q-55.9,55.8-111.8,111.6A28.54,28.54,0,0,1,114.71,383Z"/><path class="cls-2" d="M249.65,248.44V212.56c-1.42-.42-1.86.73-2.49,1.36Q163.28,297.59,79.44,381.3c-.53.53-1,1.14-1.45,1.71l-6,0c-2-.65-4.22.18-6.26-.53-2.19,0-4.4.16-6.45-.88-1.07-2.4,1.08-3.34,2.26-4.53,11.06-11.14,22.22-22.2,33.31-33.31,7.83-7.86,15.8-15.56,23.47-23.58a3.92,3.92,0,0,1,1.81-1.27,5.09,5.09,0,0,1,2.23,0,8.89,8.89,0,0,0,6.06-.27c12.6-3.26,17.46-12.84,16.83-23.56-.26-4.21,0-8.45,0-12.68,0-3,1.35-4.3,4.3-4.3,4.74,0,9.48-.19,14.21,0,16.6.77,26.4-15.18,20.09-28.58a9.87,9.87,0,0,1-.6-1.76c-.48-2,.65-3.32,1.91-4.58q28.85-28.86,57.76-57.63c1-1,1.92-2.48,3.75-1.48a54.34,54.34,0,0,1,3.73,20.72q.15,53.37,0,106.75c0,2,.22,4-.61,5.88-1.36-1.22-1.23-2.88-1.25-4.45,0-4.3-.11-8.59.07-12.88-.18-10.22-.13-20.44,0-30.66-.16-5.59-.05-11.19,0-16.79A5.9,5.9,0,0,1,249.65,248.44Z"/><path class="cls-19" d="M339,5.92c8.26,3.16,15.67,7.61,21.6,14.28A28.67,28.67,0,0,1,357,24q-56.07,56-112.18,112c-1.4,1.4-2.52,3.08-4.2,4.21a122.41,122.41,0,0,0-20.17-14.57c-.85-1.08-.07-1.87.53-2.63a34.73,34.73,0,0,1,2.85-3q55.13-55,110.28-110C335.56,8.51,336.35,6,339,5.92Z"/><path class="cls-20" d="M249.65,269.39v30.68c-7.52,7.83-15.31,15.38-23,23.06Q198,351.84,169.21,380.51a28.54,28.54,0,0,1-2.77,2.5H135.72c-.52-2.43,1.38-3.6,2.72-5,7.82-7.88,15.7-15.71,23.56-23.55q40.94-40.86,81.89-81.68C245.47,271.25,246.72,268.83,249.65,269.39Z"/><path class="cls-21" d="M240.59,140.12c0-1.72,1.36-2.59,2.4-3.63q57.13-57,114.3-114.08c.95-.94,1.72-2.2,3.31-2.21a35.91,35.91,0,0,1,10.38,12,23.88,23.88,0,0,1-3.84,4.07Q311.4,91.93,255.6,147.57c-1.49,1.49-2.73,3.24-4.49,4.46Z"/><path class="cls-13" d="M339,5.92c-1.88,2-3.72,4-5.65,5.93q-55,55-110.08,109.92c-1.11,1.11-2.66,2-2.85,3.78l-15.73-6.65a12.88,12.88,0,0,1,3.09-4.16Q263.27,59.39,318.72,4c1.33-1.32,2.55-2.78,4.69-2.65A44.35,44.35,0,0,1,339,5.92Z"/><path class="cls-8" d="M249.65,269.39a12.27,12.27,0,0,0-4.19,3.05q-53.29,53.22-106.63,106.42a13.47,13.47,0,0,0-3.11,4.15h-21c.07-1.58,1.35-2.33,2.29-3.27q64.65-64.56,129.33-129.09c.95-1,1.72-2.21,3.32-2.21Z"/><path class="cls-22" d="M251.11,152c0-1.57,1.2-2.4,2.16-3.35Q310.62,91.44,368,34.2c.86-.86,1.58-2,3-2,2.8,4.32,5.85,8.49,7.43,13.47-1.82.21-2.66,1.76-3.77,2.87Q318.26,104.74,261.91,161c-1.05,1.05-2.23,2-3.35,2.94Z"/><path class="cls-23" d="M166.44,383c.07-1.58,1.35-2.33,2.29-3.27q38.79-38.75,77.6-77.46c.95-.94,1.72-2.21,3.32-2.21q0,8.69.08,17.36c-1.82,20.57-11.23,37.12-27.19,49.92-11,8.82-23.57,14.19-37.83,15.11-2.29.74-4.71-.16-7,.54Z"/><path class="cls-19" d="M211.64,142.08c6.15,3,11.84,6.68,16.22,12.08-.41,1.53-1.58,2.5-2.63,3.55Q188.11,194.77,151,231.83a13.92,13.92,0,0,1-2.51,2.22c-1.22.75-2.35.93-3-.74-.69-3.45-.34-6.94-.33-10.41A46.7,46.7,0,0,0,144,210.7c-.3-2.07.75-3.56,2.12-4.93q31-31,62.1-62C209.11,142.87,210,141.65,211.64,142.08Z"/><path class="cls-19" d="M5.93,338.36c7.36-7.24,14.75-14.44,22.06-21.72q19.86-19.75,39.67-39.56c1-1,1.84-2.43,3.58-2.46.23-.09.52-.26.7-.17,6.35,3.48,13.35,3.68,20.32,4,1.7.93.8,2.11.21,3.15a18.44,18.44,0,0,1-3.24,3.6c-23.66,23.71-47.5,47.26-71.07,71.07a3.19,3.19,0,0,1-.91.64A55.46,55.46,0,0,1,5.93,338.36Z"/><path class="cls-22" d="M44.25,377a55.42,55.42,0,0,1-16.5-9.85c-1.27-1.71.05-2.79,1-3.85,1.84-2,3.84-3.9,5.78-5.84Q67,325.14,99.38,292.86c1.35-1.33,2.49-4.22,5.36-2.1a4.33,4.33,0,0,1,.44,2.16,30.57,30.57,0,0,0,4.51,19.13c.11.87-.51,1.33-1,1.85-20.27,19.84-40.17,40-60.3,60C47.13,375.11,46.09,376.6,44.25,377Z"/><path class="cls-22" d="M246.58,184.08c-1.58,0-2.34,1.31-3.29,2.25Q214.6,215,185.93,243.59c-.94.94-2.23,1.7-2.23,3.29a1,1,0,0,1-1.33-.27c-4.38-5.59-10.5-7.86-17.21-9-1.1-1.31-.06-2.31.56-3.31a12.7,12.7,0,0,1,2-2.22q32.67-32.61,65.36-65.2c1.07-1.06,1.91-2.76,3.94-2.28A52.74,52.74,0,0,1,246.58,184.08Z"/><path class="cls-24" d="M211.64,142.08a33,33,0,0,0-2.59,2.1q-31.08,31-62.14,62c-.94.94-2.21,1.71-2.21,3.3-1,.3-1.33-.47-1.69-1.08a21,21,0,0,0-12.44-10,3.4,3.4,0,0,1-2.37-1.67c.08-1.72,1.51-2.52,2.53-3.54q27.38-27.37,54.82-54.66c1.36-1.35,2.1-3.46,4.31-3.91A54.2,54.2,0,0,1,211.64,142.08Z"/><path class="cls-25" d="M104.1,290.34c-1.58.06-2.33,1.34-3.28,2.28q-35.37,35.26-70.7,70.56c-1.12,1.12-2.62,2.05-2.37,4a47.45,47.45,0,0,1-10.5-10.24c.07-1.88,1.64-2.72,2.75-3.83q34.76-34.75,69.58-69.47A14.46,14.46,0,0,0,93,279.22c3.17-2.21,6.63-1.3,10-.87a2.25,2.25,0,0,1,2,2C105.41,283.72,106.33,287.18,104.1,290.34Z"/><path class="cls-21" d="M237,164.58c-1,.89-2.12,1.71-3.09,2.67q-32.8,32.72-65.61,65.46a14.13,14.13,0,0,0-3.37,4.42,3.77,3.77,0,0,1-3,1.2,111.22,111.22,0,0,1-13-.07c-2.34-.2-4.32-1-2.6-4,1.86-.13,2.7-1.69,3.81-2.8q37.24-37.11,74.45-74.27c1.06-1.05,2.22-2,3.32-3A34,34,0,0,1,237,164.58Z"/><path class="cls-26" d="M44.25,377c4.72-4.8,9.41-9.63,14.16-14.39q23.69-23.69,47.41-47.31c1-1,1.82-2.46,3.56-2.51.32-.2.77-.36,1-.12,2.9,2.78,7,3.82,9.83,6.7Q91.11,348.58,62,377.77c-1.1,1.11-2.67,2-2.77,3.81A48,48,0,0,1,44.25,377Z"/><path class="cls-12" d="M59.23,134.77c0,1.58-1.32,2.34-2.26,3.29q-26,26-52.12,52c-.95.94-1.71,2.21-3.3,2.23,3.4-18.82,13.22-33.64,28.44-45A65.57,65.57,0,0,1,59.23,134.77Z"/><path class="cls-12" d="M80.22,134l-14.42-.06c1.77-.83,3.67-.62,5.52-.62q53.88,0,107.76,0c1.85,0,3.75-.21,5.52.62l-21.91.07H80.22Z"/><path class="cls-20" d="M177.71,383c2.25-1.22,4.66-.4,7-.54C182.43,383.37,180.06,383.08,177.71,383Z"/><path class="cls-26" d="M65.68,382.46c2.09.14,4.26-.69,6.26.53C69.83,383.09,67.71,383.33,65.68,382.46Z"/><path class="cls-9" d="M105.83,209a2.71,2.71,0,0,0-.89,2c-8.86,9.13-18,18-26.94,27a2.57,2.57,0,0,1-2,.79c-.58-.35-1.06-.81-.58-1.49a31.49,31.49,0,0,1,2.94-3.82c7.37-7.42,14.73-14.85,22.23-22.13C101.91,210.09,103.06,207.53,105.83,209Z"/><path class="cls-26" d="M122.23,319.66h5.94A6.37,6.37,0,0,1,122.23,319.66Z"/><path class="cls-27" d="M78,238.05a3.23,3.23,0,0,1,1.3-2.54q11.7-11.67,23.39-23.35a3.13,3.13,0,0,1,2.25-1.14c-1.08,2.21-.6,4.59-.66,6.88-.13,5.09-.31,10.21,0,15.28.26,3.62-1.13,4.18-4.35,4.17C92.65,237.33,85.28,236.63,78,238.05Z"/></g></g></svg>